<svg xmlns="http://www.w3.org/2000/svg" xmlns:xlink="http://www.w3.org/1999/xlink" width="500" zoomAndPan="magnify" viewBox="0 0 375 374.999991" height="500" preserveAspectRatio="xMidYMid meet" version="1.0"><defs><g/><clipPath id="e5f606c9ba"><path d="M 144.539062 108.644531 L 230.449219 108.644531 L 230.449219 173.144531 L 144.539062 173.144531 Z M 144.539062 108.644531 " clip-rule="nonzero"/></clipPath><clipPath id="ddd4d56c3d"><path d="M 181.277344 131.015625 L 192.820312 131.015625 L 170.277344 112.183594 C 170.113281 112.046875 169.90625 111.972656 169.695312 111.972656 L 154.527344 111.972656 C 154.15625 111.972656 153.933594 112.175781 153.835938 112.296875 C 153.734375 112.417969 153.578125 112.675781 153.648438 113.035156 L 153.945312 114.582031 C 154.007812 114.910156 154.242188 115.175781 154.566406 115.269531 L 161 117.203125 C 162.476562 117.648438 163.558594 118.808594 163.902344 120.3125 C 164.246094 121.8125 163.773438 123.328125 162.636719 124.367188 C 160.410156 126.402344 157.320312 129.632812 155.265625 133.46875 C 152.34375 138.929688 152.378906 144.039062 155.355469 148.6875 C 159.488281 138.140625 169.722656 131.015625 181.277344 131.015625 Z M 223.375 139.503906 L 223.429688 139.503906 C 225.613281 139.503906 227.390625 137.726562 227.390625 135.542969 L 227.390625 127.183594 C 227.390625 125 225.613281 123.222656 223.429688 123.222656 L 213.707031 123.222656 C 209.6875 123.222656 206.421875 119.953125 206.421875 115.933594 C 206.421875 111.914062 209.6875 108.644531 213.707031 108.644531 L 224.996094 108.644531 L 224.996094 111.972656 L 213.707031 111.972656 C 211.523438 111.972656 209.75 113.75 209.75 115.933594 C 209.75 118.117188 211.523438 119.894531 213.707031 119.894531 L 223.429688 119.894531 C 227.449219 119.894531 230.71875 123.164062 230.71875 127.183594 L 230.71875 135.542969 C 230.71875 139.25 227.941406 142.3125 224.359375 142.773438 C 224.164062 141.628906 223.828125 140.535156 223.375 139.503906 Z M 144.898438 123.5625 L 151.628906 117.179688 C 152.144531 117.777344 152.824219 118.226562 153.609375 118.460938 L 160.042969 120.394531 C 160.496094 120.53125 160.625 120.902344 160.660156 121.054688 C 160.695312 121.207031 160.738281 121.59375 160.394531 121.90625 C 158.140625 123.964844 155.074219 127.160156 152.828125 131.015625 L 148.394531 131.015625 C 147.859375 131.015625 147.339844 131.117188 146.847656 131.308594 L 145.835938 131.710938 C 145.453125 131.859375 145.152344 131.714844 145.007812 131.617188 C 144.890625 131.539062 144.617188 131.304688 144.617188 130.878906 L 144.617188 124.21875 C 144.617188 123.972656 144.71875 123.738281 144.898438 123.5625 Z M 154.785156 168.414062 C 155.871094 168.015625 156.605469 166.984375 156.621094 165.839844 L 156.757812 158.4375 C 156.792969 156.457031 157.066406 154.503906 157.5625 152.632812 C 160.386719 141.863281 170.136719 134.347656 181.277344 134.347656 L 210.40625 134.347656 C 216.382812 134.347656 221.242188 139.210938 221.242188 145.191406 L 221.242188 149.488281 C 221.242188 150.128906 221.46875 150.761719 221.878906 151.261719 L 227.390625 157.832031 L 227.390625 173.082031 L 214.5625 173.082031 L 215.867188 170.46875 L 218.046875 169.332031 C 218.878906 168.894531 219.429688 168.078125 219.523438 167.148438 C 219.621094 166.21875 219.25 165.308594 218.53125 164.714844 L 211.085938 158.578125 L 208.398438 148.410156 L 205.183594 149.261719 L 206.292969 153.457031 L 189.953125 156.585938 L 171.046875 156.757812 C 169.917969 156.765625 168.914062 157.449219 168.488281 158.496094 L 162.605469 173.082031 L 149.738281 173.082031 L 150.976562 169.789062 Z M 174.851562 168.464844 C 175.9375 168.066406 176.671875 167.03125 176.6875 165.886719 L 176.796875 160.035156 L 188 159.933594 L 182.675781 173.132812 L 169.808594 173.132812 L 171.046875 169.839844 Z M 174.851562 168.464844 " clip-rule="nonzero"/></clipPath><linearGradient x1="1.157442" gradientTransform="matrix(-0.230533, 0, 0, 0.230687, 230.716829, 108.643097)" y1="139.776993" x2="373.486019" gradientUnits="userSpaceOnUse" y2="139.776993" id="e4b49ed362"><stop stop-opacity="1" stop-color="rgb(90.58075%, 83.053589%, 61.921692%)" offset="0"/><stop stop-opacity="1" stop-color="rgb(90.534973%, 82.937622%, 61.726379%)" offset="0.015625"/><stop stop-opacity="1" stop-color="rgb(90.466309%, 82.762146%, 61.433411%)" offset="0.0234375"/><stop stop-opacity="1" stop-color="rgb(90.420532%, 82.646179%, 61.236572%)" offset="0.03125"/><stop stop-opacity="1" stop-color="rgb(90.350342%, 82.472229%, 60.943604%)" offset="0.046875"/><stop stop-opacity="1" stop-color="rgb(90.258789%, 82.240295%, 60.552979%)" offset="0.0625"/><stop stop-opacity="1" stop-color="rgb(90.167236%, 82.008362%, 60.162354%)" offset="0.078125"/><stop stop-opacity="1" stop-color="rgb(90.098572%, 81.834412%, 59.869385%)" offset="0.0859375"/><stop stop-opacity="1" stop-color="rgb(90.052795%, 81.718445%, 59.672546%)" offset="0.09375"/><stop stop-opacity="1" stop-color="rgb(89.984131%, 81.544495%, 59.379578%)" offset="0.109375"/><stop stop-opacity="1" stop-color="rgb(89.891052%, 81.312561%, 58.988953%)" offset="0.125"/><stop stop-opacity="1" stop-color="rgb(89.7995%, 81.080627%, 58.598328%)" offset="0.140625"/><stop stop-opacity="1" stop-color="rgb(89.707947%, 80.848694%, 58.207703%)" offset="0.15625"/><stop stop-opacity="1" stop-color="rgb(89.639282%, 80.674744%, 57.913208%)" offset="0.164062"/><stop stop-opacity="1" stop-color="rgb(89.593506%, 80.558777%, 57.717896%)" offset="0.171875"/><stop stop-opacity="1" stop-color="rgb(89.523315%, 80.383301%, 57.424927%)" offset="0.1875"/><stop stop-opacity="1" stop-color="rgb(89.431763%, 80.151367%, 57.034302%)" offset="0.203125"/><stop stop-opacity="1" stop-color="rgb(89.34021%, 79.919434%, 56.643677%)" offset="0.21875"/><stop stop-opacity="1" stop-color="rgb(89.271545%, 79.745483%, 56.350708%)" offset="0.226562"/><stop stop-opacity="1" stop-color="rgb(89.225769%, 79.629517%, 56.15387%)" offset="0.234375"/><stop stop-opacity="1" stop-color="rgb(89.155579%, 79.455566%, 55.860901%)" offset="0.25"/><stop stop-opacity="1" stop-color="rgb(89.064026%, 79.223633%, 55.470276%)" offset="0.265625"/><stop stop-opacity="1" stop-color="rgb(88.972473%, 78.991699%, 55.079651%)" offset="0.28125"/><stop stop-opacity="1" stop-color="rgb(88.88092%, 78.759766%, 54.689026%)" offset="0.296875"/><stop stop-opacity="1" stop-color="rgb(88.812256%, 78.585815%, 54.394531%)" offset="0.304687"/><stop stop-opacity="1" stop-color="rgb(88.766479%, 78.469849%, 54.199219%)" offset="0.3125"/><stop stop-opacity="1" stop-color="rgb(88.696289%, 78.294373%, 53.90625%)" offset="0.328125"/><stop stop-opacity="1" stop-color="rgb(88.604736%, 78.062439%, 53.515625%)" offset="0.34375"/><stop stop-opacity="1" stop-color="rgb(88.513184%, 77.830505%, 53.125%)" offset="0.359375"/><stop stop-opacity="1" stop-color="rgb(88.444519%, 77.656555%, 52.830505%)" offset="0.367187"/><stop stop-opacity="1" stop-color="rgb(88.398743%, 77.540588%, 52.635193%)" offset="0.375"/><stop stop-opacity="1" stop-color="rgb(88.328552%, 77.366638%, 52.342224%)" offset="0.390625"/><stop stop-opacity="1" stop-color="rgb(88.237%, 77.134705%, 51.951599%)" offset="0.40625"/><stop stop-opacity="1" stop-color="rgb(88.145447%, 76.902771%, 51.560974%)" offset="0.421875"/><stop stop-opacity="1" stop-color="rgb(88.076782%, 76.728821%, 51.268005%)" offset="0.429687"/><stop stop-opacity="1" stop-color="rgb(88.031006%, 76.612854%, 51.071167%)" offset="0.4375"/><stop stop-opacity="1" stop-color="rgb(87.960815%, 76.438904%, 50.778198%)" offset="0.453125"/><stop stop-opacity="1" stop-color="rgb(87.869263%, 76.20697%, 50.387573%)" offset="0.46875"/><stop stop-opacity="1" stop-color="rgb(87.77771%, 75.973511%, 49.996948%)" offset="0.484375"/><stop stop-opacity="1" stop-color="rgb(87.686157%, 75.741577%, 49.606323%)" offset="0.5"/><stop stop-opacity="1" stop-color="rgb(87.617493%, 75.567627%, 49.311829%)" offset="0.507813"/><stop stop-opacity="1" stop-color="rgb(87.571716%, 75.45166%, 49.116516%)" offset="0.515625"/><stop stop-opacity="1" stop-color="rgb(87.501526%, 75.27771%, 48.823547%)" offset="0.53125"/><stop stop-opacity="1" stop-color="rgb(87.409973%, 75.045776%, 48.432922%)" offset="0.546875"/><stop stop-opacity="1" stop-color="rgb(87.31842%, 74.813843%, 48.042297%)" offset="0.5625"/><stop stop-opacity="1" stop-color="rgb(87.249756%, 74.639893%, 47.749329%)" offset="0.570312"/><stop stop-opacity="1" stop-color="rgb(87.203979%, 74.523926%, 47.55249%)" offset="0.578125"/><stop stop-opacity="1" stop-color="rgb(87.133789%, 74.349976%, 47.259521%)" offset="0.59375"/><stop stop-opacity="1" stop-color="rgb(87.042236%, 74.118042%, 46.868896%)" offset="0.609375"/><stop stop-opacity="1" stop-color="rgb(86.950684%, 73.886108%, 46.478271%)" offset="0.625"/><stop stop-opacity="1" stop-color="rgb(86.859131%, 73.652649%, 46.087646%)" offset="0.640625"/><stop stop-opacity="1" stop-color="rgb(86.790466%, 73.478699%, 45.793152%)" offset="0.648438"/><stop stop-opacity="1" stop-color="rgb(86.74469%, 73.362732%, 45.597839%)" offset="0.65625"/><stop stop-opacity="1" stop-color="rgb(86.6745%, 73.188782%, 45.304871%)" offset="0.671875"/><stop stop-opacity="1" stop-color="rgb(86.582947%, 72.956848%, 44.914246%)" offset="0.6875"/><stop stop-opacity="1" stop-color="rgb(86.491394%, 72.724915%, 44.523621%)" offset="0.703125"/><stop stop-opacity="1" stop-color="rgb(86.422729%, 72.550964%, 44.229126%)" offset="0.710938"/><stop stop-opacity="1" stop-color="rgb(86.376953%, 72.434998%, 44.033813%)" offset="0.71875"/><stop stop-opacity="1" stop-color="rgb(86.306763%, 72.261047%, 43.740845%)" offset="0.734375"/><stop stop-opacity="1" stop-color="rgb(86.21521%, 72.029114%, 43.35022%)" offset="0.75"/><stop stop-opacity="1" stop-color="rgb(86.123657%, 71.79718%, 42.959595%)" offset="0.765625"/><stop stop-opacity="1" stop-color="rgb(86.054993%, 71.62323%, 42.666626%)" offset="0.773438"/><stop stop-opacity="1" stop-color="rgb(86.009216%, 71.505737%, 42.469788%)" offset="0.78125"/><stop stop-opacity="1" stop-color="rgb(85.939026%, 71.331787%, 42.176819%)" offset="0.796875"/><stop stop-opacity="1" stop-color="rgb(85.847473%, 71.099854%, 41.786194%)" offset="0.8125"/><stop stop-opacity="1" stop-color="rgb(85.75592%, 70.86792%, 41.395569%)" offset="0.828125"/><stop stop-opacity="1" stop-color="rgb(85.664368%, 70.635986%, 41.004944%)" offset="0.84375"/><stop stop-opacity="1" stop-color="rgb(85.595703%, 70.462036%, 40.710449%)" offset="0.851563"/><stop stop-opacity="1" stop-color="rgb(85.549927%, 70.346069%, 40.515137%)" offset="0.859375"/><stop stop-opacity="1" stop-color="rgb(85.479736%, 70.172119%, 40.222168%)" offset="0.875"/><stop stop-opacity="1" stop-color="rgb(85.388184%, 69.940186%, 39.831543%)" offset="0.890625"/><stop stop-opacity="1" stop-color="rgb(85.296631%, 69.708252%, 39.440918%)" offset="0.90625"/><stop stop-opacity="1" stop-color="rgb(85.227966%, 69.534302%, 39.147949%)" offset="0.914062"/><stop stop-opacity="1" stop-color="rgb(85.18219%, 69.418335%, 38.951111%)" offset="0.921875"/><stop stop-opacity="1" stop-color="rgb(85.112%, 69.242859%, 38.658142%)" offset="0.9375"/><stop stop-opacity="1" stop-color="rgb(85.020447%, 69.010925%, 38.267517%)" offset="0.953125"/><stop stop-opacity="1" stop-color="rgb(84.928894%, 68.778992%, 37.876892%)" offset="0.96875"/><stop stop-opacity="1" stop-color="rgb(84.837341%, 68.547058%, 37.486267%)" offset="0.984375"/><stop stop-opacity="1" stop-color="rgb(84.768677%, 68.373108%, 37.191772%)" offset="0.992188"/><stop stop-opacity="1" stop-color="rgb(84.721375%, 68.257141%, 36.99646%)" offset="1"/></linearGradient></defs><g fill="#d8ae5e" fill-opacity="1"><g transform="translate(144.055934, 223.264512)"><g><path d="M 9.703125 -14.359375 L 13.4375 -12.09375 C 14.945312 -11.207031 16.109375 -10.300781 16.921875 -9.375 C 17.742188 -8.445312 18.15625 -7.320312 18.15625 -6 C 18.15625 -4.90625 17.859375 -3.847656 17.265625 -2.828125 C 16.679688 -1.816406 15.789062 -0.988281 14.59375 -0.34375 C 13.40625 0.300781 11.910156 0.625 10.109375 0.625 C 9.109375 0.625 8.144531 0.53125 7.21875 0.34375 C 6.300781 0.15625 5.390625 -0.0507812 4.484375 -0.28125 C 3.585938 -0.507812 2.671875 -0.6875 1.734375 -0.8125 L 1.21875 -10.390625 L 1.4375 -10.421875 C 2.363281 -8.554688 3.421875 -7.015625 4.609375 -5.796875 C 5.804688 -4.585938 7.007812 -3.644531 8.21875 -2.96875 C 9.4375 -2.289062 10.554688 -1.8125 11.578125 -1.53125 C 12.609375 -1.257812 13.414062 -1.125 14 -1.125 C 14.695312 -1.125 15.171875 -1.25 15.421875 -1.5 C 15.671875 -1.757812 15.796875 -2.035156 15.796875 -2.328125 C 15.796875 -2.804688 15.539062 -3.265625 15.03125 -3.703125 C 14.519531 -4.140625 13.847656 -4.59375 13.015625 -5.0625 C 12.191406 -5.539062 11.285156 -6.070312 10.296875 -6.65625 L 6.6875 -8.859375 C 5.8125 -9.378906 5.007812 -9.921875 4.28125 -10.484375 C 3.5625 -11.054688 2.984375 -11.738281 2.546875 -12.53125 C 2.109375 -13.320312 1.898438 -14.273438 1.921875 -15.390625 C 1.941406 -16.859375 2.3125 -18.03125 3.03125 -18.90625 C 3.75 -19.789062 4.703125 -20.425781 5.890625 -20.8125 C 7.085938 -21.195312 8.398438 -21.390625 9.828125 -21.390625 C 10.921875 -21.390625 11.890625 -21.257812 12.734375 -21 C 13.585938 -20.738281 14.304688 -20.4375 14.890625 -20.09375 L 16.890625 -21.328125 L 17.046875 -21.328125 L 17.046875 -12.3125 L 16.859375 -12.3125 C 15.691406 -13.882812 14.457031 -15.242188 13.15625 -16.390625 C 11.863281 -17.546875 10.59375 -18.4375 9.34375 -19.0625 C 8.09375 -19.6875 6.945312 -20 5.90625 -20 C 5.382812 -20 4.992188 -19.882812 4.734375 -19.65625 C 4.484375 -19.425781 4.359375 -19.132812 4.359375 -18.78125 C 4.359375 -18.34375 4.535156 -17.929688 4.890625 -17.546875 C 5.253906 -17.171875 5.828125 -16.738281 6.609375 -16.25 C 7.398438 -15.757812 8.429688 -15.128906 9.703125 -14.359375 Z M 9.703125 -14.359375 "/></g></g></g><g fill="#d8ae5e" fill-opacity="1"><g transform="translate(165.780458, 223.264512)"><g><path d="M 11.375 0.34375 C 9.40625 0.257812 7.617188 -0.222656 6.015625 -1.109375 C 4.410156 -2.003906 3.132812 -3.265625 2.1875 -4.890625 C 1.25 -6.523438 0.78125 -8.460938 0.78125 -10.703125 C 0.78125 -12.441406 1.050781 -13.929688 1.59375 -15.171875 C 2.144531 -16.421875 2.847656 -17.445312 3.703125 -18.25 C 4.566406 -19.0625 5.460938 -19.695312 6.390625 -20.15625 C 7.328125 -20.625 8.203125 -20.953125 9.015625 -21.140625 C 9.828125 -21.328125 10.453125 -21.421875 10.890625 -21.421875 C 12.171875 -21.421875 13.332031 -21.238281 14.375 -20.875 C 15.425781 -20.507812 16.316406 -20.039062 17.046875 -19.46875 C 17.785156 -18.90625 18.332031 -18.289062 18.6875 -17.625 L 13.59375 -12.625 L 13.40625 -12.6875 C 12.96875 -14.21875 12.484375 -15.457031 11.953125 -16.40625 C 11.421875 -17.363281 10.882812 -18.097656 10.34375 -18.609375 C 9.8125 -19.117188 9.304688 -19.460938 8.828125 -19.640625 C 8.347656 -19.816406 7.945312 -19.90625 7.625 -19.90625 C 7.039062 -19.90625 6.5 -19.625 6 -19.0625 C 5.5 -18.5 5.238281 -17.566406 5.21875 -16.265625 C 5.21875 -15.367188 5.335938 -14.378906 5.578125 -13.296875 C 5.816406 -12.222656 6.191406 -11.148438 6.703125 -10.078125 C 7.210938 -9.015625 7.867188 -8.039062 8.671875 -7.15625 C 9.484375 -6.28125 10.453125 -5.570312 11.578125 -5.03125 C 12.710938 -4.5 14.023438 -4.234375 15.515625 -4.234375 C 16.015625 -4.234375 16.5 -4.285156 16.96875 -4.390625 C 17.445312 -4.492188 17.925781 -4.625 18.40625 -4.78125 L 18.53125 -4.609375 C 18.03125 -4.191406 17.414062 -3.703125 16.6875 -3.140625 C 15.96875 -2.578125 15.234375 -2.03125 14.484375 -1.5 C 13.742188 -0.976562 13.085938 -0.539062 12.515625 -0.1875 C 11.941406 0.164062 11.5625 0.34375 11.375 0.34375 Z M 11.375 0.34375 "/></g></g></g><g fill="#d8ae5e" fill-opacity="1"><g transform="translate(187.318512, 223.264512)"><g><path d="M 6.25 -20.984375 L 12.65625 -20.984375 L 19.75 -0.1875 L 19.75 0 L 11.3125 0 L 11.3125 -0.1875 L 12.90625 -1.796875 L 11.03125 -7.28125 L 5.9375 -7.28125 C 5.976562 -5.800781 6.1875 -4.445312 6.5625 -3.21875 C 6.9375 -1.988281 7.472656 -0.976562 8.171875 -0.1875 L 8.171875 0 L 0.21875 0 L 0.21875 -0.1875 L 7.59375 -17.046875 L 6.25 -20.796875 Z M 5.9375 -7.828125 L 10.859375 -7.828125 L 8.015625 -16.171875 L 7.828125 -16.171875 L 7.125 -14.140625 C 6.75 -13.066406 6.46875 -11.992188 6.28125 -10.921875 C 6.09375 -9.859375 5.976562 -8.828125 5.9375 -7.828125 Z M 5.9375 -7.828125 "/></g></g></g><g fill="#d8ae5e" fill-opacity="1"><g transform="translate(209.882151, 223.264512)"><g><path d="M 10.859375 -10.078125 L 15.359375 -10.265625 L 20.609375 -0.28125 L 20.609375 0 L 11.9375 0 L 11.9375 -0.1875 L 13.5 -1.796875 L 9.453125 -10.265625 L 8.734375 -10.265625 L 8.734375 -1.921875 L 10.359375 -0.1875 L 10.359375 0 L 1.0625 0 L 1.0625 -0.1875 L 2.671875 -1.921875 L 2.703125 -19.1875 L 1.03125 -20.796875 L 1.03125 -20.984375 L 10.90625 -20.984375 C 12.488281 -20.984375 13.929688 -20.847656 15.234375 -20.578125 C 16.535156 -20.316406 17.582031 -19.847656 18.375 -19.171875 C 19.164062 -18.492188 19.5625 -17.546875 19.5625 -16.328125 C 19.5625 -15.453125 19.289062 -14.601562 18.75 -13.78125 C 18.207031 -12.96875 17.300781 -12.25 16.03125 -11.625 C 14.769531 -11.007812 13.046875 -10.566406 10.859375 -10.296875 Z M 8.734375 -20.421875 L 8.734375 -10.828125 L 9.671875 -10.828125 C 10.460938 -10.828125 11.09375 -10.976562 11.5625 -11.28125 C 12.039062 -11.59375 12.394531 -12.007812 12.625 -12.53125 C 12.851562 -13.050781 13.003906 -13.609375 13.078125 -14.203125 C 13.148438 -14.804688 13.1875 -15.398438 13.1875 -15.984375 C 13.1875 -16.785156 13.101562 -17.523438 12.9375 -18.203125 C 12.769531 -18.878906 12.457031 -19.414062 12 -19.8125 C 11.539062 -20.21875 10.867188 -20.421875 9.984375 -20.421875 Z M 8.734375 -20.421875 "/></g></g></g><g fill="#d8ae5e" fill-opacity="1"><g transform="translate(152.327734, 247.56697)"><g><path d="M 1.65625 -6.34375 L 1.65625 -3.984375 L 4.640625 -4.015625 L 4.640625 -3.28125 L 1.65625 -3.28125 L 1.65625 0 L 0.765625 0 L 0.765625 -7.140625 L 5.03125 -7.140625 L 5.03125 -6.34375 Z M 1.65625 -6.34375 "/></g></g></g><g fill="#d8ae5e" fill-opacity="1"><g transform="translate(162.269718, 247.56697)"><g><path d="M 0.796875 -7.140625 L 1.6875 -7.140625 L 1.6875 0 L 0.796875 0 Z M 0.796875 -7.140625 "/></g></g></g><g fill="#d8ae5e" fill-opacity="1"><g transform="translate(169.425168, 247.56697)"><g><path d="M 0.765625 -7.140625 L 1.75 -7.140625 L 5.578125 -1.40625 L 5.625 -1.40625 L 5.625 -7.140625 L 6.484375 -7.140625 L 6.484375 0 L 5.484375 0 L 1.671875 -5.65625 L 1.625 -5.65625 L 1.625 0 L 0.765625 0 Z M 0.765625 -7.140625 "/></g></g></g><g fill="#d8ae5e" fill-opacity="1"><g transform="translate(181.357519, 247.56697)"><g><path d="M 4.921875 -2.078125 L 2.015625 -2.078125 L 1.265625 0 L 0.375 0 L 3.046875 -7.140625 L 3.890625 -7.140625 L 6.59375 0 L 5.6875 0 Z M 4.671875 -2.78125 L 3.484375 -6.015625 L 3.4375 -6.015625 L 2.28125 -2.78125 Z M 4.671875 -2.78125 "/></g></g></g><g fill="#d8ae5e" fill-opacity="1"><g transform="translate(192.973452, 247.56697)"><g><path d="M 0.765625 -7.140625 L 1.75 -7.140625 L 5.578125 -1.40625 L 5.625 -1.40625 L 5.625 -7.140625 L 6.484375 -7.140625 L 6.484375 0 L 5.484375 0 L 1.671875 -5.65625 L 1.625 -5.65625 L 1.625 0 L 0.765625 0 Z M 0.765625 -7.140625 "/></g></g></g><g fill="#d8ae5e" fill-opacity="1"><g transform="translate(204.905802, 247.56697)"><g><path d="M 3.78125 0.078125 C 3.113281 0.078125 2.535156 -0.078125 2.046875 -0.390625 C 1.566406 -0.710938 1.195312 -1.148438 0.9375 -1.703125 C 0.6875 -2.265625 0.5625 -2.898438 0.5625 -3.609375 C 0.5625 -4.316406 0.6875 -4.945312 0.9375 -5.5 C 1.195312 -6.0625 1.566406 -6.5 2.046875 -6.8125 C 2.535156 -7.132812 3.113281 -7.296875 3.78125 -7.296875 C 4.582031 -7.296875 5.242188 -7.066406 5.765625 -6.609375 C 6.285156 -6.160156 6.632812 -5.550781 6.8125 -4.78125 L 5.953125 -4.78125 C 5.804688 -5.3125 5.539062 -5.726562 5.15625 -6.03125 C 4.78125 -6.34375 4.320312 -6.5 3.78125 -6.5 C 3.039062 -6.5 2.472656 -6.238281 2.078125 -5.71875 C 1.679688 -5.195312 1.484375 -4.5 1.484375 -3.625 C 1.484375 -2.738281 1.679688 -2.035156 2.078125 -1.515625 C 2.472656 -0.992188 3.039062 -0.734375 3.78125 -0.734375 C 4.289062 -0.734375 4.726562 -0.867188 5.09375 -1.140625 C 5.46875 -1.421875 5.734375 -1.789062 5.890625 -2.25 L 6.75 -2.25 C 6.5625 -1.539062 6.207031 -0.972656 5.6875 -0.546875 C 5.175781 -0.128906 4.539062 0.078125 3.78125 0.078125 Z M 3.78125 0.078125 "/></g></g></g><g fill="#d8ae5e" fill-opacity="1"><g transform="translate(216.848364, 247.56697)"><g><path d="M 1.65625 -6.34375 L 1.65625 -4 L 4.75 -4 L 4.75 -3.28125 L 1.65625 -3.28125 L 1.65625 -0.796875 L 5.15625 -0.796875 L 5.15625 0 L 0.765625 0 L 0.765625 -7.140625 L 5.15625 -7.140625 L 5.15625 -6.34375 Z M 1.65625 -6.34375 "/></g></g></g><g clip-path="url(#e5f606c9ba)"><g clip-path="url(#ddd4d56c3d)"><path fill="url(#e4b49ed362)" d="M 230.449219 108.644531 L 230.449219 173.132812 L 144.617188 173.132812 L 144.617188 108.644531 Z M 230.449219 108.644531 " fill-rule="nonzero"/></g></g><path stroke-linecap="butt" transform="matrix(0, -0.75, 0.75, 0, 220.049551, 139.049873)" fill="none" stroke-linejoin="miter" d="M -0.00121064 1.001641 L 47.998793 1.001641 " stroke="#e7d49e" stroke-width="2" stroke-opacity="1" stroke-miterlimit="4"/><path stroke-linecap="butt" transform="matrix(0.000000001309, -0.75, 0.75, 0.000000001309, 212.996563, 133.650548)" fill="none" stroke-linejoin="miter" d="M -0.0023943 0.999374 L 40.8049 0.999374 " stroke="#e7d49e" stroke-width="2" stroke-opacity="1" stroke-miterlimit="4"/></svg>